# xmcd
#
# Track frame offsets: 
#        150
#        16140
#        33432
#        61197
#        77105
#        94382
#        110142
#        127839
#        150597
#        168624
#        181427
#        199899
#        211686
#        230678
#        250458
#        270138
#        291693
#        311528
#        325916
#        340156
#
# Disc length: 4760 seconds
#
# Revision: 0
# Processed by: cddbd v1.5.2PL0 Copyright (c) Steve Scherf et al.
# Submitted via: ExactAudioCopy v0.95a5
#
DISCID=1f129614
DTITLE=George THOROGOOD - The Baddest of ... CD-1
DYEAR=2004
DGENRE=Blues
TTITLE0=Rockin' My Life Away
TTITLE1=Sweet Little Lady
TTITLE2=Killer's Blues
TTITLE3=I Got My Eyes On You
TTITLE4=You Don't Love Me, You Don't Care
TTITLE5=Back To Wentzville
TTITLE6=99 Days in Jail
TTITLE7=As The Years Go Passing By
TTITLE8=My Dog Can't Bark
TTITLE9=Don't Let the Bossman Get You Down
TTITLE10=As Long As I Have You.....
TTITLE11=That's It, I Quit
TTITLE12=Moving
TTITLE13=Goodbye Baby
TTITLE14=Who Do You Love
TTITLE15=Move It
TTITLE16=Six Days On the Road
TTITLE17=Restless
TTITLE18=That Same Thing
TTITLE19=You Can't Catch Me
EXTD=
EXTT0=
EXTT1=
EXTT2=
EXTT3=
EXTT4=
EXTT5=
EXTT6=
EXTT7=
EXTT8=
EXTT9=
EXTT10=
EXTT11=
EXTT12=
EXTT13=
EXTT14=
EXTT15=
EXTT16=
EXTT17=
EXTT18=
EXTT19=
PLAYORDER=
